<svg height="444pt" viewBox="-32 0 444 444.30001" width="444pt" xmlns="http://www.w3.org/2000/svg"><path d="m299.050781 119.800781h71.097657v274.597657c.007812 22.09375-17.90625 40.007812-40 40h-214c-22.09375.007812-40.003907-17.90625-40-40v-274.597657zm0 0" fill="#00efd1"/><path d="m116.148438 434.398438h-66c-22.09375.007812-40.003907-17.90625-40-40v-274.597657l12.300781 7.398438c12.761719 7.699219 28.738281 7.699219 41.5 0l12.300781-7.398438v274.597657c-.042969 10.605468 4.144531 20.789062 11.632812 28.296874 7.488282 7.507813 17.664063 11.722657 28.265626 11.703126zm0 0" fill="#00acea"/><path d="m370.148438 109.800781h-61.199219v-26.800781c.019531-45.847656-37.152344-83.0195312-83-83-8.476563 0-16.90625 1.28125-25 3.800781-8.09375-2.519531-16.523438-3.800781-25-3.800781-45.777344.0507812-82.890625 37.121094-83 82.898438v26.800781h-18.199219c-.199219 0-.398438.101562-.601562.101562-.097657 0-.296876.097657-.398438.097657-.199219 0-.300781.101562-.5.101562s-.300781.101562-.5.101562c-.152344.023438-.289062.09375-.398438.199219-.203124.097657-.402343.097657-.5.199219-.101562.101562-.203124.101562-.402343.199219-.179688.078125-.347657.179687-.5.300781-.097657 0-.097657.101562-.199219.101562l-12.300781 7.398438c-9.554688 5.800781-21.542969 5.800781-31.097657 0l-12-7.300781c-3.082031-1.886719-6.941406-1.96875-10.09375-.203125-3.152343 1.761718-5.105468 5.089844-5.109374 8.703125v274.601562c.011718 27.609375 22.390624 49.988281 50 50h280c27.613281-.011719 49.992187-22.390625 50-50v-274.5c-.015626-5.515625-4.480469-9.984375-10-10zm-81.199219-26.800781v26.800781h-30v-26.800781c.078125-22.027344-8.675781-43.171875-24.300781-58.699219-1.425782-1.445312-2.929688-2.8125-4.5-4.101562 15.214843.984375 29.546874 7.492187 40.300781 18.300781 11.933593 11.71875 18.609375 27.773438 18.5 44.5zm-125.800781 26.800781v-26.800781c.058593-25.105469 14.976562-47.792969 38-57.800781 7.28125 3.167969 13.894531 7.679687 19.5 13.300781 11.835937 11.777344 18.460937 27.804688 18.402343 44.5v26.800781zm-50-26.800781c.027343-33.144531 25.730468-60.597656 58.800781-62.800781-18.28125 15.746093-28.796875 38.675781-28.800781 62.800781v26.800781h-30zm-93 311.398438v-257c14.417968 7.5 31.585937 7.5 46 0v257c-.007813 10.820312 3.5 21.351562 10 30h-26c-16.546876-.046876-29.949219-13.449219-30-30zm340 0c-.046876 16.550781-13.449219 29.953124-30 30h-214c-16.546876-.046876-29.949219-13.449219-30-30v-264.597657h15.300781c.5625.085938 1.132812.117188 1.699219.097657.601562 0 1.101562-.097657 1.703124-.097657h38.296876v71.097657c0 5.523437 4.480468 10 10 10 5.523437 0 10-4.476563 10-10v-71.097657h84.203124c.5625.085938 1.128907.117188 1.699219.097657.597657 0 1.097657-.097657 1.699219-.097657h38.300781v71.097657c0 5.523437 4.476563 10 10 10 5.523438 0 10-4.476563 10-10v-71.097657h51.097657zm0 0" fill="#083863"/></svg>