<svg height="434pt" viewBox="-37 0 434 434.4" width="434pt" xmlns="http://www.w3.org/2000/svg"><path d="m239 129.898438c-5.515625-.015626-9.984375-4.480469-10-10v-37c0-34.738282-28.160156-62.898438-62.898438-62.898438-34.742187 0-62.902343 28.160156-62.902343 62.898438v37c0 5.523437-4.476563 10-10 10-5.523438 0-10-4.476563-10-10v-37c0-45.78125 37.117187-82.898438 82.902343-82.898438 45.78125 0 82.898438 37.117188 82.898438 82.898438v37c.027344 2.660156-1.019531 5.222656-2.898438 7.101562-1.882812 1.882812-4.441406 2.925781-7.101562 2.898438zm0 0" fill="#fedb41"/><path d="m289.101562 119.800781h71.097657v274.597657c.007812 22.09375-17.90625 40.007812-40 40h-214c-22.09375.007812-40.003907-17.90625-40-40v-274.597657zm0 0" fill="#00efd1"/><path d="m289 210.898438c-5.515625-.015626-9.984375-4.480469-10-10v-118c0-34.738282-28.160156-62.898438-62.898438-62.898438-34.742187 0-62.902343 28.160156-62.902343 62.898438v118c0 5.523437-4.476563 10-10 10-5.523438 0-10-4.476563-10-10v-118c0-45.78125 37.117187-82.898438 82.902343-82.898438 45.78125 0 82.898438 37.117188 82.898438 82.898438v118c.027344 2.660156-1.019531 5.222656-2.898438 7.101562-1.882812 1.882812-4.441406 2.925781-7.101562 2.898438zm0 0" fill="#fedb41"/><path d="m66.199219 394.398438v-274.597657l-12.300781 7.398438c-12.761719 7.699219-28.738282 7.699219-41.5 0l-12.199219-7.398438v274.597657c-.003907 22.09375 17.90625 40.007812 40 40h66c-22.09375.007812-40.003907-17.90625-40-40zm0 0" fill="#00acea"/></svg>