<?xml version="1.0" encoding="iso-8859-1"?>
<!-- Generator: Adobe Illustrator 19.0.0, SVG Export Plug-In . SVG Version: 6.00 Build 0)  -->
<svg version="1.1" id="Layer_1" xmlns="http://www.w3.org/2000/svg" xmlns:xlink="http://www.w3.org/1999/xlink" x="0px" y="0px"
	 viewBox="0 0 504.32 504.32" style="enable-background:new 0 0 504.32 504.32;" xml:space="preserve">
<g transform="translate(1 13)">
	<path style="fill:#FF7474;" d="M498.2,230.627v221.867c0,18.773-15.36,34.133-34.133,34.133H173.933c-2.56,0-5.973,0-8.533-0.853
		c-14.507-3.413-25.6-17.067-25.6-33.28v-68.267v-153.6h221.867H498.2L498.2,230.627z"/>
	<path style="fill:#50DD8E;" d="M139.8,452.493c0,16.213,11.093,29.867,25.6,33.28v0.853h-128c-18.773,0-34.133-15.36-34.133-34.133
		v-68.267H139.8V452.493z M88.6,94.093h187.733h85.333l0,0v136.533H139.8v153.6H3.267V94.093H88.6z"/>
	<path style="fill:#ECF4F7;" d="M276.333,145.293c9.387,0,17.067,7.68,17.067,17.067s-7.68,17.067-17.067,17.067
		s-17.067-7.68-17.067-17.067S266.947,145.293,276.333,145.293z M242.2,281.827c9.387,0,17.067,7.68,17.067,17.067
		s-7.68,17.067-17.067,17.067s-17.067-7.68-17.067-17.067S232.813,281.827,242.2,281.827z M88.6,145.293
		c9.387,0,17.067,7.68,17.067,17.067s-7.68,17.067-17.067,17.067s-17.067-7.68-17.067-17.067S79.213,145.293,88.6,145.293z
		 M395.8,281.827c9.387,0,17.067,7.68,17.067,17.067s-7.68,17.067-17.067,17.067s-17.067-7.68-17.067-17.067
		S386.413,281.827,395.8,281.827z"/>
</g>
<path style="fill:#51565F;" d="M465.067,503.893H174.933c-21.333,0-38.4-17.067-38.4-38.4V243.627c0-0.853,0.853-2.56,0.853-3.413
	c0-0.853,1.707-0.853,3.413-0.853l0,0h33.28c0,0,0,0,0.853,0H499.2c1.707,0,2.56,0.853,3.413,1.707
	c0.853,0.853,1.707,1.707,1.707,3.413v221.867C503.467,486.827,486.4,503.893,465.067,503.893z M145.067,247.893v217.6
	c0,16.213,13.653,29.867,29.867,29.867h290.133c16.213,0,29.867-13.653,29.867-29.867v-217.6H145.067z M115.2,503.893H38.4
	c-21.333,0-38.4-17.067-38.4-38.4v-358.4c0-2.56,1.707-4.267,4.267-4.267h51.2c2.56,0,4.267,1.707,4.267,4.267
	s-1.707,4.267-4.267,4.267H8.533v281.6h98.133c2.56,0,4.267,1.707,4.267,4.267c0,2.56-1.707,4.267-4.267,4.267H8.533v64
	c0,16.213,13.653,29.867,29.867,29.867h76.8c2.56,0,4.267,1.707,4.267,4.267C119.467,502.187,117.76,503.893,115.2,503.893z
	 M320,435.627c-44.373,0-81.067-36.693-81.067-81.067v-21.333c-9.387-1.707-17.067-10.24-17.067-21.333
	c0-11.947,9.387-21.333,21.333-21.333s21.333,9.387,21.333,21.333c0,10.24-7.68,18.773-17.067,21.333v21.333
	c0,40.107,32.427,72.533,72.533,72.533s72.533-32.427,72.533-72.533v-21.333c-9.387-1.707-17.067-10.24-17.067-21.333
	c0-11.947,9.387-21.333,21.333-21.333s21.333,9.387,21.333,21.333c0,10.24-7.68,18.773-17.067,21.333v21.333
	C401.067,398.933,364.373,435.627,320,435.627z M396.8,299.093c-6.827,0-12.8,5.973-12.8,12.8s5.973,12.8,12.8,12.8
	s12.8-5.973,12.8-12.8S403.627,299.093,396.8,299.093z M243.2,299.093c-6.827,0-12.8,5.973-12.8,12.8s5.973,12.8,12.8,12.8
	s12.8-5.973,12.8-12.8S250.027,299.093,243.2,299.093z M362.667,213.76c-2.56,0-4.267-1.707-4.267-4.267V111.36h-76.8v43.52
	c9.387,1.707,17.067,10.24,17.067,20.48c0,11.947-9.387,21.333-21.333,21.333S256,187.307,256,175.36
	c0-10.24,7.68-18.773,17.067-20.48V98.56c0-49.493-40.107-89.6-89.6-89.6c-49.493,0-89.6,40.107-89.6,89.6v4.267H243.2
	c2.56,0,4.267,1.707,4.267,4.267s-1.707,4.267-4.267,4.267H93.867v43.52c9.387,1.707,17.067,10.24,17.067,20.48
	c0,11.947-9.387,21.333-21.333,21.333s-21.333-9.387-21.333-21.333c0-10.24,7.68-18.773,17.067-20.48V98.56
	c0-53.76,44.373-98.133,98.133-98.133S281.6,44.8,281.6,98.56v4.267h81.067c2.56,0,4.267,1.707,4.267,4.267l0,0l0,0v102.4
	C366.933,212.053,365.227,213.76,362.667,213.76z M277.333,162.56c-6.827,0-12.8,5.973-12.8,12.8s5.973,12.8,12.8,12.8
	s12.8-5.973,12.8-12.8S284.16,162.56,277.333,162.56z M89.6,162.56c-6.827,0-12.8,5.973-12.8,12.8s5.973,12.8,12.8,12.8
	s12.8-5.973,12.8-12.8S96.427,162.56,89.6,162.56z"/>
<g>
</g>
<g>
</g>
<g>
</g>
<g>
</g>
<g>
</g>
<g>
</g>
<g>
</g>
<g>
</g>
<g>
</g>
<g>
</g>
<g>
</g>
<g>
</g>
<g>
</g>
<g>
</g>
<g>
</g>
</svg>
