<?xml version="1.0" encoding="iso-8859-1"?>
<!-- Generator: Adobe Illustrator 19.0.0, SVG Export Plug-In . SVG Version: 6.00 Build 0)  -->
<svg version="1.1" id="Layer_1" xmlns="http://www.w3.org/2000/svg" xmlns:xlink="http://www.w3.org/1999/xlink" x="0px" y="0px"
	 viewBox="0 0 503.467 503.467" style="enable-background:new 0 0 503.467 503.467;" xml:space="preserve">
<g transform="translate(1 5)">
	<path style="fill:#50DD8E;" d="M71.533,41.933l1.707,8.533h-1.707h-51.2c0,0-17.067,0-17.067-17.067s17.067-17.067,17.067-17.067
		h25.6C63,16.333,71.533,41.933,71.533,41.933"/>
	<path style="fill:#AE938D;" d="M404.333,425.933c14.507,0,25.6,11.093,25.6,25.6s-11.093,25.6-25.6,25.6
		c-14.507,0-25.6-11.093-25.6-25.6S389.827,425.933,404.333,425.933z M148.333,425.933c14.507,0,25.6,11.093,25.6,25.6
		s-11.093,25.6-25.6,25.6s-25.6-11.093-25.6-25.6S133.827,425.933,148.333,425.933z"/>
	<path style="fill:#ECF4F7;" d="M84.333,118.733H498.2c0,0-34.133,187.733-42.667,213.333s-34.133,25.6-34.133,25.6H156.867
		c-25.6,0-34.133-17.067-34.133-17.067L84.333,118.733z"/>
</g>
<path style="fill:#51565F;" d="M405.333,486.4c-16.213,0-29.867-13.653-29.867-29.867s13.653-29.867,29.867-29.867
	c16.213,0,29.867,13.653,29.867,29.867S421.547,486.4,405.333,486.4z M405.333,435.2c-11.947,0-21.333,9.387-21.333,21.333
	s9.387,21.333,21.333,21.333c11.947,0,21.333-9.387,21.333-21.333S417.28,435.2,405.333,435.2z M149.333,486.4
	c-16.213,0-29.867-13.653-29.867-29.867s13.653-29.867,29.867-29.867S179.2,440.32,179.2,456.533S165.547,486.4,149.333,486.4z
	 M149.333,435.2c-11.947,0-21.333,9.387-21.333,21.333s9.387,21.333,21.333,21.333c11.947,0,21.333-9.387,21.333-21.333
	S161.28,435.2,149.333,435.2z M174.933,418.133c-0.853,0-1.707,0-1.707-0.853c-1.707-0.853-2.56-3.413-1.707-5.973
	c1.707-3.413,10.24-19.627,20.48-19.627h238.933c2.56,0,4.267,1.707,4.267,4.267c0,2.56-1.707,4.267-4.267,4.267H192
	c-3.413,0-10.24,8.533-13.653,14.507C178.347,417.28,176.64,418.133,174.933,418.133z M422.4,366.933H157.867
	c-28.16,0-37.547-18.773-37.547-19.627v-0.853L69.12,47.787C67.413,41.813,58.88,25.6,47.787,25.6h-25.6
	c-1.707,0-12.8,0.853-12.8,12.8s11.093,12.8,12.8,12.8h17.067c2.56,0,4.267,1.707,4.267,4.267c0,2.56-1.707,4.267-4.267,4.267
	H22.187c-7.68,0-21.333-4.267-21.333-21.333s13.653-21.333,21.333-21.333h25.6c19.627,0,29.013,27.307,29.867,28.16l51.2,298.667
	c1.707,2.56,9.387,14.507,29.867,14.507h264.533c0.853,0,23.04,0,29.867-23.04c7.68-23.04,35.84-177.493,41.813-207.36H115.2
	c-2.56,0-4.267-1.707-4.267-4.267c0-2.56,1.707-4.267,4.267-4.267h384c0.853,0,2.56,0.853,3.413,1.707
	c0.853,0.853,0.853,2.56,0.853,3.413c-1.707,7.68-34.133,188.587-42.667,214.187C453.12,360.96,432.64,366.933,422.4,366.933z
	 M379.733,332.8L379.733,332.8c-2.56,0-4.267-1.707-4.267-4.267c0,0,0,0,0-0.853l4.267-46.933h-81.067v46.933
	c0,2.56-1.707,4.267-4.267,4.267s-4.267-1.707-4.267-4.267v-46.933h-81.067l4.267,46.933c0,0,0,0,0,0.853
	c0,2.56-1.707,4.267-4.267,4.267s-4.267-1.707-4.267-3.413l-5.12-46.933H140.8c-2.56,0-4.267-1.707-4.267-4.267
	s1.707-4.267,4.267-4.267h58.027l-5.973-59.733h-63.147c-2.56,0-4.267-1.707-4.267-4.267c0-2.56,1.707-4.267,4.267-4.267H192
	l-4.267-46.933c0,0,0,0,0-0.853c0-2.56,1.707-4.267,4.267-4.267s4.267,1.707,4.267,3.413l5.12,46.933h88.747v-46.08
	c0-2.56,1.707-4.267,4.267-4.267s4.267,1.707,4.267,4.267V204.8h88.747l5.12-46.933c0-2.56,2.56-4.267,4.267-3.413
	c2.56,0,4.267,1.707,4.267,4.267c0,0,0,0,0,0.853l-4.267,46.933H448c2.56,0,4.267,1.707,4.267,4.267c0,2.56-1.707,4.267-4.267,4.267
	h-52.053l-5.973,59.733H435.2c2.56,0,4.267,1.707,4.267,4.267c0,2.56-1.707,4.267-4.267,4.267h-46.08L384,330.24
	C384,331.093,382.293,332.8,379.733,332.8z M298.667,273.067h81.92l5.973-59.733h-87.893V273.067z M208.213,273.067h81.92v-59.733
	H202.24L208.213,273.067z M81.067,332.8H21.333c-2.56,0-4.267-1.707-4.267-4.267c0-2.56,1.707-4.267,4.267-4.267h59.733
	c2.56,0,4.267,1.707,4.267,4.267C85.333,331.093,83.627,332.8,81.067,332.8z M68.267,281.6H38.4c-2.56,0-4.267-1.707-4.267-4.267
	s1.707-4.267,4.267-4.267h29.867c2.56,0,4.267,1.707,4.267,4.267S70.827,281.6,68.267,281.6z M55.467,230.4h-51.2
	c-2.56,0-4.267-1.707-4.267-4.267s1.707-4.267,4.267-4.267h51.2c2.56,0,4.267,1.707,4.267,4.267S58.027,230.4,55.467,230.4z"/>
<g>
</g>
<g>
</g>
<g>
</g>
<g>
</g>
<g>
</g>
<g>
</g>
<g>
</g>
<g>
</g>
<g>
</g>
<g>
</g>
<g>
</g>
<g>
</g>
<g>
</g>
<g>
</g>
<g>
</g>
</svg>
