<?xml version="1.0" encoding="iso-8859-1"?>
<!-- Generator: Adobe Illustrator 19.0.0, SVG Export Plug-In . SVG Version: 6.00 Build 0)  -->
<svg version="1.1" id="Layer_1" xmlns="http://www.w3.org/2000/svg" xmlns:xlink="http://www.w3.org/1999/xlink" x="0px" y="0px"
	 viewBox="0 0 503.467 503.467" style="enable-background:new 0 0 503.467 503.467;" xml:space="preserve">
<g transform="translate(1 1)">
	<path style="fill:#50DD8E;" d="M481.133,225.133L447,464.067c0,18.773-15.36,34.133-34.133,34.133H88.6
		c-18.773,0-34.133-15.36-34.133-34.133L20.333,225.133H481.133z"/>
	<polygon style="fill:#E4F2DE;" points="455.533,156.867 454.68,156.867 454.68,156.867 46.787,156.867 3.267,156.867 
		3.267,225.133 20.333,225.133 481.133,225.133 498.2,225.133 498.2,156.867 	"/>
	<path style="fill:#50DD8E;" d="M327.533,3.267c9.387,0,17.067,7.68,17.067,17.067S336.92,37.4,327.533,37.4h-153.6
		c-9.387,0-17.067-7.68-17.067-17.067s7.68-17.067,17.067-17.067H327.533z"/>
</g>
<path style="fill:#51565F;" d="M413.867,503.467H89.6c-21.333,0-38.4-17.067-38.4-38.4L22.187,261.12c0-2.56,1.707-4.267,3.413-5.12
	c2.56,0,4.267,1.707,5.12,3.413l29.013,204.8c0,17.067,13.653,30.72,29.867,30.72h324.267c16.213,0,29.867-13.653,29.867-29.867
	l33.28-234.667H4.267c-2.56,0-4.267-1.707-4.267-4.267v-68.267c0-2.56,1.707-4.267,4.267-4.267H17.92
	c2.56,0,4.267,1.707,4.267,4.267c0,2.56-1.707,4.267-4.267,4.267H8.533v59.733h473.6c0.853,0,2.56,0.853,3.413,1.707
	c0.853,0.853,0.853,2.56,0.853,3.413L452.267,465.92C452.267,486.4,435.2,503.467,413.867,503.467z M371.2,469.333L371.2,469.333
	c-2.56,0-4.267-1.707-4.267-4.267l0,0l2.56-29.867h-70.827v29.867c0,2.56-1.707,4.267-4.267,4.267s-4.267-1.707-4.267-4.267V435.2
	h-76.8v29.867c0,2.56-1.707,4.267-4.267,4.267s-4.267-1.707-4.267-4.267V435.2h-70.827l2.56,29.867l0,0
	c0,2.56-1.707,4.267-4.267,4.267c-2.56,0-4.267-1.707-4.267-4.267l-2.56-29.867H86.187c-2.56,0-4.267-1.707-4.267-4.267
	c0-2.56,1.707-4.267,4.267-4.267h38.4l-5.12-59.733H76.8c-2.56,0-4.267-1.707-4.267-4.267S74.24,358.4,76.8,358.4h41.813
	l-5.12-59.733H68.267c-2.56,0-4.267-1.707-4.267-4.267c0-2.56,1.707-4.267,4.267-4.267h44.373l-2.56-29.867l0,0
	c0-2.56,1.707-4.267,4.267-4.267c2.56,0,4.267,1.707,4.267,4.267l2.56,29.867h82.773v-29.867c0-2.56,1.707-4.267,4.267-4.267
	s4.267,1.707,4.267,4.267v29.867h76.8v-29.867c0-2.56,1.707-4.267,4.267-4.267s4.267,1.707,4.267,4.267v29.867h82.773l2.56-29.867
	c0-2.56,2.56-4.267,4.267-4.267c2.56,0,4.267,1.707,4.267,4.267l0,0l-2.56,29.867h45.227c2.56,0,4.267,1.707,4.267,4.267
	c0,2.56-1.707,4.267-4.267,4.267h-46.08l-5.12,59.733h41.813c2.56,0,4.267,1.707,4.267,4.267s-1.707,4.267-4.267,4.267h-42.667
	l-5.12,59.733h39.253c2.56,0,4.267,1.707,4.267,4.267c0,2.56-1.707,4.267-4.267,4.267H376.32l-2.56,29.867
	C375.467,467.627,373.76,469.333,371.2,469.333z M298.667,426.667h71.68l5.12-59.733h-76.8V426.667z M213.333,426.667h76.8v-59.733
	h-76.8V426.667z M133.12,426.667h71.68v-59.733H128L133.12,426.667z M298.667,358.4h76.8l5.12-59.733h-81.92V358.4z M213.333,358.4
	h76.8v-59.733h-76.8V358.4z M128,358.4h76.8v-59.733h-81.92L128,358.4z M465.067,196.267c-1.707,0-3.413-0.853-4.267-3.413
	l-42.667-153.6C413.013,28.16,406.187,25.6,396.8,25.6h-17.067c-2.56,0-4.267-1.707-4.267-4.267s1.707-4.267,4.267-4.267H396.8
	c10.24,0,22.187,2.56,29.867,19.627L459.093,153.6H499.2c2.56,0,4.267,1.707,4.267,4.267V192c0,2.56-1.707,4.267-4.267,4.267
	c-2.56,0-4.267-1.707-4.267-4.267v-29.867H460.8l7.68,29.013c0.853,2.56-0.853,4.267-2.56,5.12
	C465.92,196.267,465.067,196.267,465.067,196.267z M38.4,196.267h-0.853c-2.56-0.853-3.413-2.56-2.56-5.12l42.667-153.6
	c7.68-17.92,19.627-20.48,29.867-20.48h17.067c2.56,0,4.267,1.707,4.267,4.267s-1.707,4.267-4.267,4.267H107.52
	c-9.387,0-16.213,2.56-21.333,14.507L54.613,153.6h368.64c2.56,0,4.267,1.707,4.267,4.267c0,2.56-1.707,4.267-4.267,4.267h-371.2
	l-8.533,30.72C41.813,195.413,40.107,196.267,38.4,196.267z M328.533,42.667h-153.6c-11.947,0-21.333-9.387-21.333-21.333
	S162.987,0,174.933,0h153.6c11.947,0,21.333,9.387,21.333,21.333S340.48,42.667,328.533,42.667z M174.933,8.533
	c-6.827,0-12.8,5.973-12.8,12.8s5.973,12.8,12.8,12.8h153.6c6.827,0,12.8-5.973,12.8-12.8s-5.973-12.8-12.8-12.8H174.933z"/>
<g>
</g>
<g>
</g>
<g>
</g>
<g>
</g>
<g>
</g>
<g>
</g>
<g>
</g>
<g>
</g>
<g>
</g>
<g>
</g>
<g>
</g>
<g>
</g>
<g>
</g>
<g>
</g>
<g>
</g>
</svg>
